HIERARCHY
ROOT Hips
{
	OFFSET 0.000000 0.000000 0.000000
	CHANNELS 6 Xposition Yposition Zposition Zrotation Yrotation Xrotation 
	JOINT LHipJoint
	{
		OFFSET 0.000000 0.000000 0.000000
		CHANNELS 3 Zrotation Yrotation Xrotation
		JOINT LeftUpLeg
		{
			OFFSET 1.363060 -1.794630 0.839290
			CHANNELS 3 Zrotation Yrotation Xrotation
			JOINT LeftLeg
			{
				OFFSET 2.448110 -6.726130 0.000000
				CHANNELS 3 Zrotation Yrotation Xrotation
				JOINT LeftFoot
				{
					OFFSET 2.562200 -7.039590 0.000000
					CHANNELS 3 Zrotation Yrotation Xrotation
					JOINT LeftToeBase
					{
						OFFSET 0.157640 -0.433110 2.322550
						CHANNELS 3 Zrotation Yrotation Xrotation
						End Site
						{
							OFFSET 0.000000 0.000000 0.000000
						}
					}
				}
			}
		}
	}
	JOINT RHipJoint
	{
		OFFSET 0.000000 0.000000 0.000000
		CHANNELS 3 Zrotation Yrotation Xrotation
		JOINT RightUpLeg
		{
			OFFSET -1.305520 -1.794630 0.839290
			CHANNELS 3 Zrotation Yrotation Xrotation
			JOINT RightLeg
			{
				OFFSET -2.542530 -6.985550 0.000000
				CHANNELS 3 Zrotation Yrotation Xrotation
				JOINT RightFoot
				{
					OFFSET -2.568260 -7.056230 0.000000
					CHANNELS 3 Zrotation Yrotation Xrotation
					JOINT RightToeBase
					{
						OFFSET -0.164730 -0.452590 2.363150
						CHANNELS 3 Zrotation Yrotation Xrotation
						End Site
						{
							OFFSET 0.000000 0.000000 0.000000
						}
					}
				}
			}
		}
	}
	JOINT LowerBack
	{
		OFFSET 0.000000 0.000000 0.000000
		CHANNELS 3 Zrotation Yrotation Xrotation
		JOINT Spine
		{
			OFFSET 0.028270 2.035590 -0.193380
			CHANNELS 3 Zrotation Yrotation Xrotation
			JOINT Spine1
			{
				OFFSET 0.056720 2.048850 -0.042750
				CHANNELS 3 Zrotation Yrotation Xrotation
				JOINT Neck
				{
					OFFSET 0.000000 0.000000 0.000000
					CHANNELS 3 Zrotation Yrotation Xrotation
					JOINT Neck1
					{
						OFFSET -0.054170 1.746240 0.172020
						CHANNELS 3 Zrotation Yrotation Xrotation
						JOINT Head
						{
							OFFSET 0.104070 1.761360 -0.123970
							CHANNELS 3 Zrotation Yrotation Xrotation
							End Site
							{
								OFFSET 0.000000 0.000000 0.000000
							}
						}
					}
				}
				JOINT LeftShoulder
				{
					OFFSET 0.000000 0.000000 0.000000
					CHANNELS 3 Zrotation Yrotation Xrotation
					JOINT LeftArm
					{
						OFFSET 3.362410 1.200890 -0.311210
						CHANNELS 3 Zrotation Yrotation Xrotation
						JOINT LeftForeArm
						{
							OFFSET 4.983000 -0.000000 -0.000000
							CHANNELS 3 Zrotation Yrotation Xrotation
							JOINT LeftHand
							{
								OFFSET 3.483560 -0.000000 -0.000000
								CHANNELS 3 Zrotation Yrotation Xrotation
								JOINT LeftFingerBase
								{
									OFFSET 0.000000 0.000000 0.000000
									CHANNELS 3 Zrotation Yrotation Xrotation
									JOINT LeftHandIndex1
									{
										OFFSET 0.715260 -0.000000 -0.000000
										CHANNELS 3 Zrotation Yrotation Xrotation
										End Site
										{
											OFFSET 0.000000 0.000000 0.000000
										}
									}
								}
								JOINT LThumb
								{
									OFFSET 0.000000 0.000000 0.000000
									CHANNELS 3 Zrotation Yrotation Xrotation
									End Site
									{
										OFFSET 0.000000 0.000000 0.000000
									}
								}
							}
						}
					}
				}
				JOINT RightShoulder
				{
					OFFSET 0.000000 0.000000 0.000000
					CHANNELS 3 Zrotation Yrotation Xrotation
					JOINT RightArm
					{
						OFFSET -3.136600 1.374050 -0.404650
						CHANNELS 3 Zrotation Yrotation Xrotation
						JOINT RightForeArm
						{
							OFFSET -5.241900 -0.000000 -0.000000
							CHANNELS 3 Zrotation Yrotation Xrotation
							JOINT RightHand
							{
								OFFSET -3.444170 -0.000000 -0.000000
								CHANNELS 3 Zrotation Yrotation Xrotation
								JOINT RightFingerBase
								{
									OFFSET 0.000000 0.000000 0.000000
									CHANNELS 3 Zrotation Yrotation Xrotation
									JOINT RightHandIndex1
									{
										OFFSET -0.622530 -0.000000 -0.000000
										CHANNELS 3 Zrotation Yrotation Xrotation
										End Site
										{
											OFFSET 0.000000 0.000000 0.000000
										}
									}
								}
								JOINT RThumb
								{
									OFFSET 0.000000 0.000000 0.000000
									CHANNELS 3 Zrotation Yrotation Xrotation
									End Site
									{
										OFFSET 0.000000 0.000000 0.000000
									}
								}
							}
						}
					}
				}
			}
		}
	}
}
MOTION
Frames: 8
Frame Time: 0.008333
-5.647248 15.727248 -0.578221 -2.738572 -30.832597 2.454069 16.061404 22.943309 -3.610813 -37.978558 -13.731815 -3.603912 14.640955 -6.825317 23.472198 1.615862 -16.462411 -11.339316 0.000000 0.000000 0.000000 -22.832186 -29.325661 4.954226 33.437761 0.488014 10.113663 -4.447688 -4.336559 26.239969 0.488701 9.691125 -24.304149 0.000000 0.000000 0.000000 2.524097 4.209143 5.639517 0.628560 4.371600 -3.728709 4.318849 1.048438 -6.764956 0.365203 0.311537 -1.409985 0.000000 0.000000 0.000000 0.000000 0.000000 0.000000 14.850997 -24.345338 -8.698035 -23.504003 -38.942462 29.353481 104.311038 -2.164066 -0.000000 0.000000 0.000000 0.000000 0.000000 0.000000 0.000000 0.000000 0.000000 0.000000 0.000000 0.000000 0.000000 -10.477287 7.817433 -26.274084 88.174486 51.302284 61.448369 -99.866284 35.826549 0.000000 0.000000 0.000000 0.000000 0.000000 0.000000 0.000000 0.000000 0.000000 0.000000 0.000000 0.000000 0.000000 
-5.650501 15.727053 -0.579794 -2.732208 -30.817361 2.439703 16.072819 22.928147 -3.598185 -37.959140 -13.729751 -3.599933 14.606195 -6.826317 23.450815 1.612766 -16.467809 -11.350606 0.000000 0.000000 0.000000 -22.823698 -29.313063 4.940112 33.435379 0.482872 10.123609 -4.443965 -4.357217 26.271423 0.497383 9.678918 -24.323309 0.000000 0.000000 0.000000 2.519588 4.219372 5.620412 0.629165 4.375193 -3.728604 4.348362 1.039658 -6.749373 0.366537 0.309801 -1.428787 0.000000 0.000000 0.000000 0.000000 0.000000 0.000000 14.860368 -24.360687 -8.700954 -23.503296 -38.928757 29.352314 104.319438 -2.170438 -0.000000 0.000000 0.000000 0.000000 0.000000 0.000000 0.000000 0.000000 0.000000 0.000000 0.000000 0.000000 0.000000 -10.458339 7.815117 -26.253175 88.172241 51.343853 61.476395 -99.863582 35.787559 0.000000 0.000000 0.000000 0.000000 0.000000 0.000000 0.000000 0.000000 0.000000 0.000000 0.000000 0.000000 0.000000 
-5.653753 15.726858 -0.581367 -2.725857 -30.802124 2.425354 16.084200 22.912949 -3.585562 -37.939663 -13.727701 -3.595986 14.571406 -6.827316 23.429423 1.609660 -16.473184 -11.361865 0.000000 0.000000 0.000000 -22.815188 -29.300461 4.926020 33.432980 0.477760 10.133519 -4.440202 -4.377882 26.302871 0.506088 9.666690 -24.342436 0.000000 0.000000 0.000000 2.515060 4.229624 5.601272 0.629764 4.378798 -3.728511 4.377908 1.030837 -6.733737 0.367856 0.308063 -1.447605 0.000000 0.000000 0.000000 0.000000 0.000000 0.000000 14.869748 -24.376071 -8.703878 -23.502500 -38.915023 29.351090 104.327826 -2.176756 -0.000000 0.000000 0.000000 0.000000 0.000000 0.000000 0.000000 0.000000 0.000000 0.000000 0.000000 0.000000 0.000000 -10.439361 7.812802 -26.232190 88.169964 51.385560 61.504468 -99.860869 35.748555 0.000000 0.000000 0.000000 0.000000 0.000000 0.000000 0.000000 0.000000 0.000000 0.000000 0.000000 0.000000 0.000000 
-5.657006 15.726663 -0.582941 -2.719519 -30.786886 2.411023 16.095548 22.897715 -3.572943 -37.920127 -13.725664 -3.592071 14.536589 -6.828311 23.408022 1.606546 -16.478535 -11.373094 0.000000 0.000000 0.000000 -22.806657 -29.287855 4.911952 33.430564 0.472677 10.143395 -4.436398 -4.398553 26.334311 0.514815 9.654441 -24.361530 0.000000 0.000000 0.000000 2.510512 4.239899 5.582096 0.630357 4.382413 -3.728429 4.407487 1.021973 -6.718049 0.369160 0.306322 -1.466441 0.000000 0.000000 0.000000 0.000000 0.000000 0.000000 14.879137 -24.391491 -8.706807 -23.501612 -38.901260 29.349810 104.336201 -2.183022 -0.000000 0.000000 0.000000 0.000000 0.000000 0.000000 0.000000 0.000000 0.000000 0.000000 0.000000 0.000000 0.000000 -10.420353 7.810489 -26.211129 88.167653 51.427408 61.532588 -99.858143 35.709536 0.000000 0.000000 0.000000 0.000000 0.000000 0.000000 0.000000 0.000000 0.000000 0.000000 0.000000 0.000000 0.000000 
-5.660258 15.726468 -0.584514 -2.713193 -30.771648 2.396710 16.106863 22.882446 -3.560329 -37.900532 -13.723640 -3.588188 14.501743 -6.829305 23.386611 1.603423 -16.483863 -11.384292 0.000000 0.000000 0.000000 -22.798105 -29.275244 4.897908 33.428132 0.467624 10.153235 -4.432554 -4.419230 26.365744 0.523564 9.642172 -24.380591 0.000000 0.000000 0.000000 2.505945 4.250196 5.562886 0.630945 4.386040 -3.728360 4.437098 1.013068 -6.702307 0.370451 0.304580 -1.485294 0.000000 0.000000 0.000000 0.000000 0.000000 0.000000 14.888536 -24.406945 -8.709741 -23.500634 -38.887466 29.348474 104.344563 -2.189235 -0.000000 0.000000 0.000000 0.000000 0.000000 0.000000 0.000000 0.000000 0.000000 0.000000 0.000000 0.000000 0.000000 -10.401316 7.808179 -26.189992 88.165309 51.469395 61.560755 -99.855406 35.670502 0.000000 0.000000 0.000000 0.000000 0.000000 0.000000 0.000000 0.000000 0.000000 0.000000 0.000000 0.000000 0.000000 
-5.663417 15.726472 -0.585127 -2.703987 -30.755574 2.378850 16.118442 22.863196 -3.553071 -37.885445 -13.713628 -3.573911 14.465586 -6.828424 23.363085 1.599566 -16.484271 -11.388855 0.000000 0.000000 0.000000 -22.788768 -29.263150 4.887246 33.421598 0.463467 10.160563 -4.434542 -4.441385 26.399809 0.533719 9.626626 -24.397821 0.000000 0.000000 0.000000 2.506041 4.261974 5.541110 0.631667 4.390002 -3.727961 4.463964 1.003299 -6.681234 0.371261 0.301816 -1.507371 0.000000 0.000000 0.000000 0.000000 0.000000 0.000000 14.896737 -24.425666 -8.710178 -23.490763 -38.865398 29.345492 104.353943 -2.185014 -0.000000 0.000000 0.000000 0.000000 0.000000 0.000000 0.000000 0.000000 0.000000 0.000000 0.000000 0.000000 0.000000 -10.383026 7.807385 -26.165807 88.154142 51.524628 61.598384 -99.845041 35.626812 0.000000 0.000000 0.000000 0.000000 0.000000 0.000000 0.000000 0.000000 0.000000 0.000000 0.000000 0.000000 0.000000 
-5.666574 15.726480 -0.585722 -2.694743 -30.739478 2.360935 16.129992 22.843827 -3.545921 -37.870385 -13.703474 -3.559456 14.429376 -6.827510 23.339507 1.595689 -16.484565 -11.393260 0.000000 0.000000 0.000000 -22.779394 -29.251059 4.876682 33.414965 0.459360 10.167810 -4.436600 -4.463575 26.433923 0.543931 9.610989 -24.414981 0.000000 0.000000 0.000000 2.506200 4.273806 5.519236 0.632386 4.393983 -3.727569 4.490829 0.993455 -6.659958 0.372045 0.299028 -1.529542 0.000000 0.000000 0.000000 0.000000 0.000000 0.000000 14.904931 -24.444487 -8.710569 -23.480613 -38.843125 29.342420 104.363329 -2.180499 -0.000000 0.000000 0.000000 0.000000 0.000000 0.000000 0.000000 0.000000 0.000000 0.000000 0.000000 0.000000 0.000000 -10.364705 7.806633 -26.141418 88.142734 51.580351 61.636259 -99.834517 35.582994 0.000000 0.000000 0.000000 0.000000 0.000000 0.000000 0.000000 0.000000 0.000000 0.000000 0.000000 0.000000 0.000000 
-5.669731 15.726488 -0.586317 -2.685515 -30.723377 2.343032 16.141509 22.824416 -3.538776 -37.855262 -13.693334 -3.545025 14.393138 -6.826600 23.315917 1.591807 -16.484838 -11.397636 0.000000 0.000000 0.000000 -22.769997 -29.238960 4.866152 33.408313 0.455288 10.175024 -4.438615 -4.485770 26.468034 0.554175 9.595323 -24.432106 0.000000 0.000000 0.000000 2.506329 4.285665 5.497315 0.633101 4.397974 -3.727191 4.517748 0.983549 -6.638579 0.372812 0.296237 -1.551743 0.000000 0.000000 0.000000 0.000000 0.000000 0.000000 14.913142 -24.463346 -8.710963 -23.470353 -38.820809 29.339290 104.372702 -2.175892 -0.000000 0.000000 0.000000 0.000000 0.000000 0.000000 0.000000 0.000000 0.000000 0.000000 0.000000 0.000000 0.000000 -10.346340 7.805892 -26.116880 88.131254 51.636313 61.674198 -99.823984 35.539138 0.000000 0.000000 0.000000 0.000000 0.000000 0.000000 0.000000 0.000000 0.000000 0.000000 0.000000 0.000000 0.000000 
